:version 1.10
:name ASF
:units
  mass 1
  length 1
  angle deg
:documentation
  ASF file generated by Kaydara
:root
  axis xyz
  order  tx ty tz rx ry rz
  position 0 0 0
  orientation 0 0 0
:bonedata
  begin
    id 1
    name RightUpLegDummy
    direction -0.718183 -0.695806 0.00816078
    length 4.904
    axis 0 0 0 xyz
  end
  begin
    id 2
    name RightUpLeg
    direction -0.0736652 -0.994202 0.0783343
    length 17.4976
    axis -2.72909 -3.00389 -4.00133 xyz
    dof rx ry rz
  end
  begin
    id 3
    name RightLeg
    direction -0.0389037 -0.994596 -0.0962598
    length 16.5821
    axis 3.95836 -18.5909 -4.46993 xyz
    dof rx ry rz
  end
  begin
    id 4
    name RightFoot
    direction -0.311643 -0.412678 0.855906
    length 3.77069
    axis -1.99483 -18.8351 -3.27644 xyz
    dof rx ry rz
  end
  begin
    id 5
    name RightToes
    direction -0.317852 0.0389852 0.947339
    length 3.85082
    axis -2.00228 -18.1713 -3.25211 xyz
    dof rx ry rz
  end
  begin
    id 6
    name SpineDummy
    direction 8.3039e-015 1 4.44677e-016
    length 4.6813
    axis 0 0 0 xyz
  end
  begin
    id 7
    name Spine
    direction -0.000262373 0.999988 0.00493267
    length 10.1015
    axis -0.00246081 0.00062579 0.0150362 xyz
    dof rx ry rz
  end
  begin
    id 8
    name Spine1
    direction 0 0 0
    length 0
    axis -0.00349562 0.000650293 0.0196666 xyz
    dof rx ry rz
  end
  begin
    id 9
    name HEadDummy
    direction -0.000343232 0.999999 0.00123745
    length 3.43865
    axis -0.00349562 0.000650293 0.0196666 xyz
  end
  begin
    id 10
    name HEad
    direction -0.0461221 0.980933 0.188796
    length 5.12695
    axis -0.00351404 -7.04812 0.0199272 xyz
    dof rx ry rz
  end
  begin
    id 11
    name LeftShoulder1Dummy
    direction 0.998904 -0.0399089 -0.0244534
    length 3.5433
    axis -0.00349562 0.000650293 0.0196666 xyz
  end
  begin
    id 12
    name LeftShoulder1
    direction 0.99951 1.64443e-005 0.0312999
    length 4.05031
    axis -0.00349562 0.000650293 0.0196666 xyz
    dof rx ry rz
  end
  begin
    id 13
    name LeftArm
    direction 0.984791 0.0515299 0.165927
    length 12.9126
    axis -64.823 -10.7743 5.20463 xyz
    dof rx ry rz
  end
  begin
    id 14
    name LeftForeArm
    direction 0.984968 0.0534808 0.16425
    length 10.8596
    axis -30.0462 -7.70601 1.87451 xyz
    dof rx ry rz
  end
  begin
    id 15
    name LeftHand
    direction 0.975871 0.0289682 0.216418
    length 6.62295
    axis -20.1348 -6.98077 1.86072 xyz
    dof rx ry rz
  end
  begin
    id 16
    name RightShoulderDummy
    direction -0.998877 -0.0405946 -0.0244307
    length 3.5433
    axis -0.00349562 0.000650293 0.0196666 xyz
  end
  begin
    id 17
    name RightShoulder
    direction -0.998933 -0.0249743 -0.0388558
    length 4.05031
    axis -0.0205316 -4.02113 1.41395 xyz
    dof rx ry rz
  end
  begin
    id 18
    name RightArm
    direction -0.997559 0.068664 0.0127103
    length 12.9638
    axis -67.3882 1.84188 -6.15987 xyz
    dof rx ry rz
  end
  begin
    id 19
    name RightForeArm
    direction -0.991508 0.0912848 0.0926241
    length 10.8312
    axis -22.1975 3.41087 -4.28711 xyz
    dof rx ry rz
  end
  begin
    id 20
    name RightHand
    direction -0.989262 0.0600788 0.133232
    length 6.57864
    axis -12.2911 2.17515 -4.39675 xyz
    dof rx ry rz
  end
  begin
    id 21
    name LeftUpLegDummy
    direction 0.718183 -0.695806 0.00816078
    length 4.904
    axis 0 0 0 xyz
  end
  begin
    id 22
    name LeftUpLeg
    direction 0.0831398 -0.99469 0.0606531
    length 17.4976
    axis -1.71016 2.29552 4.63832 xyz
    dof rx ry rz
  end
  begin
    id 23
    name LeftLeg
    direction 0.0498442 -0.991778 -0.117862
    length 16.5821
    axis 5.13757 15.5727 5.13348 xyz
    dof rx ry rz
  end
  begin
    id 24
    name LeftFoot
    direction 0.269026 -0.433896 0.85986
    length 3.77069
    axis -0.576502 15.6961 4.10267 xyz
    dof rx ry rz
  end
  begin
    id 25
    name LeftToes
    direction 0.277311 0.0251143 0.960452
    length 3.85048
    axis -0.576502 15.6961 4.10267 xyz
    dof rx ry rz
  end
:hierarchy
  begin
    root RightUpLegDummy SpineDummy LeftUpLegDummy
    RightUpLegDummy RightUpLeg
    RightUpLeg RightLeg
    RightLeg RightFoot
    RightFoot RightToes
    SpineDummy Spine
    Spine Spine1
    Spine1 HEadDummy LeftShoulder1Dummy RightShoulderDummy
    HEadDummy HEad
    LeftShoulder1Dummy LeftShoulder1
    LeftShoulder1 LeftArm
    LeftArm LeftForeArm
    LeftForeArm LeftHand
    RightShoulderDummy RightShoulder
    RightShoulder RightArm
    RightArm RightForeArm
    RightForeArm RightHand
    LeftUpLegDummy LeftUpLeg
    LeftUpLeg LeftLeg
    LeftLeg LeftFoot
    LeftFoot LeftToes
  end

:SAMPLES-PER-SECOND 30
:FULLY-SPECIFIED
:DEGREES
1
root  -10.1583 39.9234 40.9352 -0.864415 -6.89997 2.99087
RightUpLeg  -5.19541 -7.99915 0.225122
RightLeg  15.6257 4.74152 -3.42732
RightFoot  -11.745 0.0240703 0.883966
RightToes  -5.82073e-011 -3.18055e-015 -2.98177e-016
Spine  3.81261 0.408087 0.79695
Spine1  6.24097 1.74509 -5.15297
HEad  -19.217 4.82556 2.06533
LeftShoulder1  -3.88251e-019 9.70628e-020 -3.87848e-018
LeftArm  -22.2905 61.2619 -58.9341
LeftForeArm  -1.65386 -11.2465 -1.6629
LeftHand  -0.712494 -2.29008 11.5205
RightShoulder  7.86695 10.6483 36.9647
RightArm  10.2937 -52.2367 7.51107
RightForeArm  21.8785 12.9484 -6.26602
RightHand  -1.10774 4.77173 -12.5885
LeftUpLeg  -6.36639 -7.6374 -8.89123
LeftLeg  11.4643 4.62039 5.49301
LeftFoot  -4.67151 -0.343637 4.49356
LeftToes  5.79026e-011 9.70705e-012 -3.73859e-011
2
root  -10.3229 39.9671 40.7778 -0.575746 -6.5853 2.48264
RightUpLeg  -5.0137 -5.57974 1.12421
RightLeg  14.4519 1.82023 -3.26808
RightFoot  -10.6333 0.0329185 -0.141616
RightToes  -5.82073e-011 -3.18055e-015 -2.98177e-016
Spine  3.87533 0.284046 0.968729
Spine1  5.70023 1.40627 -4.18943
HEad  -18.8709 5.067 2.02016
LeftShoulder1  -3.88251e-019 9.70628e-020 -3.87848e-018
LeftArm  -21.5153 61.6968 -60.2969
LeftForeArm  0.386925 -14.5837 -1.94721
LeftHand  -0.811223 -3.24097 11.6303
RightShoulder  7.77909 10.5945 36.6489
RightArm  12.3759 -52.4893 7.52295
RightForeArm  18.4356 15.2382 -6.94447
RightHand  -1.12768 4.99765 -12.5341
LeftUpLeg  -6.81737 -7.55934 -7.97888
LeftLeg  11.2987 4.04145 5.36151
LeftFoot  -4.45725 -0.330574 4.22162
LeftToes  5.79026e-011 9.70705e-012 -3.73859e-011
3
root  -10.4592 39.9711 40.5865 -0.225923 -6.32347 2.08047
RightUpLeg  -5.26972 -3.68826 1.83955
RightLeg  13.9905 -0.456789 -3.25565
RightFoot  -10.252 0.0452259 -0.641494
RightToes  -5.82073e-011 -3.18055e-015 -2.98177e-016
Spine  4.31262 0.186794 1.3834
Spine1  4.66041 1.11922 -3.31593
HEad  -18.2829 5.17878 1.80292
LeftShoulder1  -3.88251e-019 9.70628e-020 -3.87848e-018
LeftArm  -19.8078 61.8801 -61.9828
LeftForeArm  3.29823 -17.9931 -1.72651
LeftHand  -0.865185 -4.40398 10.9078
RightShoulder  7.72799 10.5713 36.4457
RightArm  13.72 -52.2759 8.31168
RightForeArm  15.0463 16.7779 -7.75875
RightHand  -1.07822 4.99226 -11.9988
LeftUpLeg  -7.66835 -7.46894 -7.15484
LeftLeg  11.682 3.95199 5.42146
LeftFoot  -4.68297 -0.243167 3.13253
LeftToes  5.79026e-011 9.70705e-012 -3.73859e-011
4
root  -10.558 39.9144 40.3715 0.016531 -5.94789 1.66956
RightUpLeg  -5.7468 -2.83178 2.3207
RightLeg  14.1991 -1.7003 -3.11354
RightFoot  -10.2848 0.0413932 -0.483216
RightToes  -5.82073e-011 -3.18055e-015 -2.98177e-016
Spine  5.13281 0.0299261 2.33397
Spine1  3.42259 0.872187 -2.79022
HEad  -17.8856 5.24513 1.40629
LeftShoulder1  -3.88251e-019 9.70628e-020 -3.87848e-018
LeftArm  -15.8782 61.4197 -63.5805
LeftForeArm  3.46641 -20.9492 -0.764797
LeftHand  -0.774249 -5.19717 9.04655
RightShoulder  7.72706 10.5765 36.4294
RightArm  14.3072 -51.3818 9.7288
RightForeArm  12.5429 17.5893 -8.18312
RightHand  -1.06104 4.71527 -12.1237
LeftUpLeg  -8.97642 -6.80026 -6.34654
LeftLeg  13.1992 2.92383 5.51079
LeftFoot  -5.70506 -0.0825301 1.01365
LeftToes  5.79026e-011 9.70705e-012 -3.73859e-011
5
root  -10.6317 39.7891 40.1651 0.053274 -5.58552 1.12725
RightUpLeg  -6.36034 -2.53764 2.84241
RightLeg  15.0867 -2.31413 -2.99631
RightFoot  -10.4983 0.0440356 -0.608998
RightToes  -5.82073e-011 -3.18055e-015 -2.98177e-016
Spine  6.03254 -0.0763058 3.81115
Spine1  2.44283 0.785033 -2.53279
HEad  -17.7754 5.21414 0.952395
LeftShoulder1  -3.88251e-019 9.70628e-020 -3.87848e-018
LeftArm  -11.3691 60.1489 -64.9905
LeftForeArm  1.30071 -23.052 0.426313
LeftHand  -0.620072 -5.60777 7.04226
RightShoulder  7.74485 10.5871 36.4944
RightArm  14.7204 -49.8463 11.5662
RightForeArm  11.2516 17.9286 -8.16577
RightHand  -1.07227 4.41451 -12.6092
LeftUpLeg  -10.5613 -4.53009 -5.47986
LeftLeg  15.8573 0.384626 5.48699
LeftFoot  -8.11203 0.020901 -0.986325
LeftToes  5.79026e-011 9.70705e-012 -3.73859e-011
6
root  -10.6846 39.6195 39.9835 -0.0916373 -5.55595 0.462087
RightUpLeg  -7.09411 -2.43427 3.58057
RightLeg  16.5623 -2.45856 -3.22668
RightFoot  -11.0208 0.0531365 -1.12381
RightToes  -5.82073e-011 -3.18055e-015 -2.98177e-016
Spine  6.76278 0.0145237 5.68967
Spine1  1.91993 1.02734 -2.65616
HEad  -17.7476 4.95152 0.715622
LeftShoulder1  -3.88251e-019 9.70628e-020 -3.87848e-018
LeftArm  -7.39172 58.2272 -66.4244
LeftForeArm  -2.11247 -24.6632 1.77501
LeftHand  -0.553706 -6.16099 6.02578
RightShoulder  7.74453 10.5942 36.4769
RightArm  15.7998 -48.1839 13.6494
RightForeArm  10.0656 18.4537 -8.37063
RightHand  -1.08261 4.35679 -12.8031
LeftUpLeg  -12.0419 -0.762769 -4.53714
LeftLeg  18.9207 -0.655362 5.95748
LeftFoot  -11.8297 -0.00704831 -2.46311
LeftToes  5.79026e-011 9.70705e-012 -3.73859e-011
7
root  -10.7132 39.4488 39.8124 -0.355475 -5.95482 -0.154052
RightUpLeg  -7.87405 -2.63335 4.35585
RightLeg  18.2731 -1.87868 -3.68955
RightFoot  -11.7334 0.0526694 -1.40317
RightToes  -5.82073e-011 -3.18055e-015 -2.98177e-016
Spine  7.31196 0.276271 7.51628
Spine1  1.76834 1.53117 -3.15145
HEad  -17.6619 4.63475 0.789857
LeftShoulder1  -3.88251e-019 9.70628e-020 -3.87848e-018
LeftArm  -3.7773 56.0831 -67.8996
LeftForeArm  -6.77896 -26.8255 3.90227
LeftHand  -0.625798 -6.93721 6.35396
RightShoulder  7.68966 10.5869 36.2186
RightArm  18.9925 -46.913 15.8604
RightForeArm  6.44998 20.0407 -9.88778
RightHand  -1.13866 4.62177 -13.1098
LeftUpLeg  -13.1966 3.20868 -3.62036
LeftLeg  21.7396 2.08756 7.90036
LeftFoot  -15.0824 -0.114911 -4.34006
LeftToes  5.79026e-011 9.70705e-012 -3.73859e-011
8
root  -10.7256 39.2965 39.647 -0.761337 -6.38633 -0.507483
RightUpLeg  -8.57685 -3.53148 4.88665
RightLeg  19.9741 -0.477303 -4.12734
RightFoot  -12.3931 0.0467414 -1.39708
RightToes  -5.82073e-011 -3.18055e-015 -2.98177e-016
Spine  7.67699 0.492084 8.47689
Spine1  1.98792 1.90407 -3.31095
HEad  -17.5807 4.63594 0.905745
LeftShoulder1  -3.88251e-019 9.70628e-020 -3.87848e-018
LeftArm  -1.96122 54.09 -68.9963
LeftForeArm  -10.3783 -30.7444 6.29765
LeftHand  -0.810395 -7.43479 7.83793
RightShoulder  7.56156 10.5419 35.6752
RightArm  23.756 -45.9032 17.8885
RightForeArm  0.737859 23.5787 -12.8153
RightHand  -1.29372 5.18805 -14.0914
LeftUpLeg  -13.9283 5.44991 -2.83821
LeftLeg  24.3311 5.73893 10.491
LeftFoot  -15.5871 -0.174291 -6.25633
LeftToes  5.79026e-011 9.70705e-012 -3.73859e-011
9
root  -10.7307 39.1533 39.5097 -1.35387 -6.3631 -0.607918
RightUpLeg  -9.0564 -5.06498 5.14079
RightLeg  21.6243 1.14472 -4.56868
RightFoot  -13.0506 0.0411224 -1.45551
RightToes  -5.82073e-011 -3.18055e-015 -2.98177e-016
Spine  7.74752 0.456775 8.34409
Spine1  2.69558 1.83595 -2.58275
HEad  -17.5372 4.94484 0.815877
LeftShoulder1  -3.88251e-019 9.70628e-020 -3.87848e-018
LeftArm  -2.83895 52.1478 -69.382
LeftForeArm  -10.3172 -36.8926 7.95276
LeftHand  -1.03533 -7.65104 9.76384
RightShoulder  7.38815 10.4483 35.0044
RightArm  26.3922 -44.6776 19.4109
RightForeArm  -2.93795 29.8374 -15.9363
RightHand  -1.5352 6.14878 -15.3341
LeftUpLeg  -13.9819 4.88448 -2.16564
LeftLeg  26.4289 5.68635 11.3503
LeftFoot  -13.7022 -0.0757733 -6.60545
LeftToes  5.79026e-011 9.70705e-012 -3.73859e-011
10
root  -10.7211 39.0389 39.4055 -2.00537 -5.99141 -0.695791
RightUpLeg  -9.17525 -6.43349 5.30547
RightLeg  22.8547 2.18785 -5.01524
RightFoot  -13.6306 0.0356926 -1.5377
RightToes  -5.82073e-011 -3.18055e-015 -2.98177e-016
Spine  7.57881 0.230216 7.87033
Spine1  3.62258 1.50119 -1.60036
HEad  -17.3316 5.18567 0.613523
LeftShoulder1  -3.88251e-019 9.70628e-020 -3.87848e-018
LeftArm  -2.75638 49.7915 -69.3813
LeftForeArm  -10.342 -44.1262 10.5153
LeftHand  -1.18546 -8.0413 10.8167
RightShoulder  7.2262 10.3368 34.4221
RightArm  28.3881 -43.2793 20.8692
RightForeArm  -7.45522 37.7524 -20.7452
RightHand  -1.81552 7.40123 -16.3613
LeftUpLeg  -13.3525 2.35482 -1.59049
LeftLeg  27.2796 2.4896 10.0119
LeftFoot  -11.9089 0.0181863 -4.83249
LeftToes  5.79026e-011 9.70705e-012 -3.73859e-011
11
root  -10.6894 39.0168 39.3021 -2.43988 -5.85455 -0.853838
RightUpLeg  -8.96523 -7.01043 5.5008
RightLeg  23.0044 2.60535 -5.23335
RightFoot  -13.643 0.0356145 -1.49662
RightToes  -5.82073e-011 -3.18055e-015 -2.98177e-016
Spine  7.45769 0.103803 7.52991
Spine1  4.07589 1.28349 -1.15447
HEad  -16.7429 5.27573 0.400018
LeftShoulder1  -3.88251e-019 9.70628e-020 -3.87848e-018
LeftArm  -2.31489 46.7667 -69.3731
LeftForeArm  -11.3323 -51.3618 13.8241
LeftHand  -1.18339 -8.50357 10.4384
RightShoulder  7.10806 10.259 33.9836
RightArm  28.7892 -41.8154 22.7504
RightForeArm  -13.4906 46.1481 -27.4154
RightHand  -2.09601 8.47779 -17.4139
LeftUpLeg  -12.4181 -0.183972 -1.26349
LeftLeg  26.5861 0.754362 8.81334
LeftFoot  -11.3552 0.0124679 -2.76463
LeftToes  5.79026e-011 9.70705e-012 -3.73859e-011
12
root  -10.6407 39.1129 39.1741 -2.47914 -6.15168 -0.817535
RightUpLeg  -8.71383 -6.84041 5.53554
RightLeg  22.0134 2.70693 -5.12039
RightFoot  -12.8891 0.0428536 -1.48185
RightToes  -5.82073e-011 -3.18055e-015 -2.98177e-016
Spine  7.54147 0.227099 6.71411
Spine1  3.73145 1.19988 -0.799516
HEad  -15.9335 5.54067 0.0294814
LeftShoulder1  -3.88251e-019 9.70628e-020 -3.87848e-018
LeftArm  -2.06809 43.2455 -69.7321
LeftForeArm  -14.1787 -57.7716 17.7773
LeftHand  -1.12952 -8.7037 9.84166
RightShoulder  7.0291 10.2209 33.6573
RightArm  28.0298 -39.8096 25.4529
RightForeArm  -21.0096 53.4564 -35.7213
RightHand  -2.36288 9.21592 -18.6198
LeftUpLeg  -11.5862 -1.41963 -1.44619
LeftLeg  24.7122 2.14733 8.90073
LeftFoot  -11.0053 0.00643232 -1.97749
LeftToes  5.79026e-011 9.70705e-012 -3.73859e-011
13
root  -10.581 39.265 39.0322 -2.17673 -6.45291 -0.402878
RightUpLeg  -8.72996 -6.23245 5.18141
RightLeg  20.6459 2.39725 -4.90975
RightFoot  -11.8667 0.0525779 -1.51225
RightToes  -5.82073e-011 -3.18055e-015 -2.98177e-016
Spine  7.66304 0.406455 5.03238
Spine1  3.0433 0.992033 0.150432
HEad  -15.3534 6.0864 -0.459275
LeftShoulder1  -3.88251e-019 9.70628e-020 -3.87848e-018
LeftArm  -2.23256 39.3872 -70.4235
LeftForeArm  -17.8092 -62.6558 21.9649
LeftHand  -1.21847 -8.97796 10.3846
RightShoulder  6.95784 10.1741 33.3881
RightArm  26.4647 -36.8204 29.3693
RightForeArm  -27.6399 58.402 -44.1008
RightHand  -2.66948 10.0016 -19.9296
LeftUpLeg  -11.1177 -1.71482 -2.1419
LeftLeg  22.5655 4.08707 9.05374
LeftFoot  -9.85722 0.0133266 -1.45017
LeftToes  5.79026e-011 9.70705e-012 -3.73859e-011
14
root  -10.5117 39.401 38.8904 -1.70748 -6.49021 0.129389
RightUpLeg  -9.0088 -5.32608 4.63206
RightLeg  19.4865 1.52017 -4.78524
RightFoot  -11.017 0.0573821 -1.34438
RightToes  -5.82073e-011 -3.18055e-015 -2.98177e-016
Spine  7.64204 0.42879 3.4953
Spine1  2.58611 0.712896 0.929623
HEad  -15.167 6.55425 -0.612397
LeftShoulder1  -3.88251e-019 9.70628e-020 -3.87848e-018
LeftArm  -2.5339 35.1465 -71.247
LeftForeArm  -20.7549 -65.3773 25.0083
LeftHand  -1.48017 -9.72823 11.9229
RightShoulder  6.82169 10.079 32.8804
RightArm  23.7779 -33.4966 34.9848
RightForeArm  -31.1417 60.6434 -49.3052
RightHand  -3.14321 10.7883 -22.2465
LeftUpLeg  -10.9898 -1.96395 -2.90045
LeftLeg  20.7303 4.61771 8.59502
LeftFoot  -8.47966 0.00644131 -0.711786
LeftToes  5.79026e-011 9.70705e-012 -3.73859e-011
15
root  -10.4267 39.4977 38.7415 -1.28779 -6.57889 0.372779
RightUpLeg  -9.26046 -4.24636 4.294
RightLeg  18.5013 0.521763 -4.62687
RightFoot  -10.2842 0.0544756 -0.994677
RightToes  -5.82073e-011 -3.18055e-015 -2.98177e-016
Spine  7.62543 0.37195 3.34807
Spine1  2.43918 0.71869 0.350199
HEad  -15.0946 6.65806 -0.191905
LeftShoulder1  -3.88251e-019 9.70628e-020 -3.87848e-018
LeftArm  -2.60265 30.7505 -72.2586
LeftForeArm  -22.582 -65.5976 25.0786
LeftHand  -1.90331 -10.8614 14.1469
RightShoulder  6.55235 9.95523 31.7171
RightArm  19.9058 -30.8025 42.2365
RightForeArm  -32.1598 60.4307 -48.4643
RightHand  -3.81094 10.8895 -26.6337
LeftUpLeg  -10.9938 -2.12414 -3.24963
LeftLeg  19.408 4.66551 8.12167
LeftFoot  -7.94325 0.0169481 -0.855139
LeftToes  5.79026e-011 9.70705e-012 -3.73859e-011
